<?xml version="1.0" encoding="utf-8"?>
<!-- Generator: Adobe Illustrator 18.0.0, SVG Export Plug-In . SVG Version: 6.00 Build 0)  -->
<!DOCTYPE svg PUBLIC "-//W3C//DTD SVG 1.1//EN" "http://www.w3.org/Graphics/SVG/1.1/DTD/svg11.dtd">
<svg version="1.1" xmlns="http://www.w3.org/2000/svg" xmlns:xlink="http://www.w3.org/1999/xlink" x="0px" y="0px"
	 viewBox="0 0 612 792" enable-background="new 0 0 612 792" xml:space="preserve">
<g id="Layer_1">
	<ellipse fill="#2BB673" stroke="#000000" stroke-miterlimit="10" cx="151.5" cy="219" rx="134.5" ry="139"/>
	<ellipse fill="none" stroke="#000000" stroke-width="9" stroke-miterlimit="10" cx="148.5" cy="212.5" rx="84.5" ry="72.5"/>
</g>
<g id="Layer_2">
	<ellipse fill="#EE2A7B" stroke="#000000" stroke-miterlimit="10" cx="448" cy="220.5" rx="132" ry="137.5"/>
	<ellipse fill="none" stroke="#000000" stroke-width="9" stroke-miterlimit="10" cx="444.5" cy="192.5" rx="49.5" ry="39.5"/>
	<ellipse fill="none" stroke="#000000" stroke-width="9" stroke-miterlimit="10" cx="487.8" cy="173.8" rx="43.3" ry="46.8"/>
	<ellipse fill="none" stroke="#000000" stroke-width="9" stroke-miterlimit="10" cx="386" cy="219.4" rx="53" ry="45.6"/>
	<ellipse fill="none" stroke="#000000" stroke-width="9" stroke-miterlimit="10" cx="444.5" cy="276.5" rx="49.5" ry="44.5"/>
	<g>
		<ellipse fill="none" stroke="#000000" stroke-width="9" stroke-miterlimit="10" cx="494.5" cy="222.5" rx="36.5" ry="42.5"/>
		<ellipse fill="none" stroke="#000000" stroke-width="9" stroke-miterlimit="10" cx="494.5" cy="222.5" rx="36.5" ry="42.5"/>
		<ellipse fill="none" stroke="#000000" stroke-width="9" stroke-miterlimit="10" cx="494.5" cy="222.5" rx="36.5" ry="42.5"/>
	</g>
</g>
<g id="Layer_3">
	<ellipse fill="#27AAE1" stroke="#000000" stroke-miterlimit="10" cx="306" cy="505.5" rx="217.5" ry="220.5"/>
	<ellipse fill="#2BB673" stroke="#000000" stroke-miterlimit="10" cx="395" cy="431.5" rx="44" ry="65.5"/>
	<ellipse fill="#EC008C" stroke="#000000" stroke-miterlimit="10" cx="215.5" cy="431.5" rx="50.5" ry="65.5"/>
	<path fill="#EC008C" stroke="#000000" stroke-miterlimit="10" d="M112,513c24,24-18-14,24,24s29,35,63,54s28,11,51,33s-6,8,36,29
		s33,26,72,24s37,6.8,53,0.4s8-1.4,20-26.4s9-25,17-40s4-9,14-24s8-8,16-21s10-7,10-21s-6,4-5-23"/>
	<line fill="#F7941E" stroke="#000000" stroke-width="9" stroke-miterlimit="10" x1="228" y1="332" x2="300" y2="401"/>
	<line fill="none" stroke="#000000" stroke-width="9" stroke-miterlimit="10" x1="366" y1="326" x2="300" y2="401"/>
</g>
</svg>
